{
  "asset": {
    "generator": "BabylonJS",
    "version": "2.0"
  },
  "buffers": [
    {
      "byteLength": 22008240,
      "uri": "86d348c0-59f8-4bf6-9867-1f38a79bcf2d.bin"
    }
  ],
  "nodes": [
    {
      "name": "SPS",
      "mesh": 0,
      "rotation": [
        0,
        1,
        0,
        0
      ]
    },
    {
      "name": "light",
      "rotation": [
        0,
        1,
        0,
        0
      ]
    }
  ],
  "meshes": [
    {
      "primitives": [
        {
          "attributes": {
            "POSITION": 0,
            "NORMAL": 1,
            "COLOR_0": 2
          },
          "indices": 3,
          "material": 0
        }
      ]
    }
  ],
  "scenes": [
    {
      "nodes": [
        0,
        1
      ]
    }
  ],
  "scene": 0,
  "bufferViews": [
    {
      "buffer": 0,
      "byteLength": 4890720,
      "name": "position - SPS",
      "byteStride": 12
    },
    {
      "buffer": 0,
      "byteLength": 4890720,
      "byteOffset": 4890720,
      "name": "normal - SPS",
      "byteStride": 12
    },
    {
      "buffer": 0,
      "byteLength": 6520960,
      "byteOffset": 9781440,
      "name": "color - SPS",
      "byteStride": 16
    },
    {
      "buffer": 0,
      "byteLength": 3260480,
      "byteOffset": 16302400,
      "name": "uv - SPS",
      "byteStride": 8
    },
    {
      "buffer": 0,
      "byteLength": 2445360,
      "byteOffset": 19562880,
      "name": "Indices - SPS"
    }
  ],
  "accessors": [
    {
      "name": "position - SPS",
      "bufferView": 0,
      "componentType": 5126,
      "count": 407560,
      "type": "VEC3",
      "min": [
        -5557.6943359375,
        -5717.23779296875,
        -5269.59228515625
      ],
      "max": [
        5711.69384765625,
        5598.1943359375,
        5958.33251953125
      ],
      "byteOffset": 0
    },
    {
      "name": "normal - SPS",
      "bufferView": 1,
      "componentType": 5126,
      "count": 407560,
      "type": "VEC3",
      "byteOffset": 0
    },
    {
      "name": "color - SPS",
      "bufferView": 2,
      "componentType": 5126,
      "count": 407560,
      "type": "VEC4",
      "byteOffset": 0
    },
    {
      "name": "indices - SPS",
      "bufferView": 4,
      "componentType": 5125,
      "count": 611340,
      "type": "SCALAR",
      "byteOffset": 0
    }
  ],
  "materials": [
    {
      "name": "default material",
      "pbrMetallicRoughness": {
        "baseColorFactor": [
          0.5,
          0.5,
          0.5,
          1
        ],
        "metallicFactor": 0,
        "roughnessFactor": 0.3288090062081349
      }
    }
  ]
}